<?xml version="1.0" encoding="iso-8859-1"?>
<!-- Generator: Adobe Illustrator 18.0.0, SVG Export Plug-In . SVG Version: 6.00 Build 0)  -->
<!DOCTYPE svg PUBLIC "-//W3C//DTD SVG 1.1//EN" "http://www.w3.org/Graphics/SVG/1.1/DTD/svg11.dtd">
<svg version="1.1" id="Capa_1" xmlns="http://www.w3.org/2000/svg" xmlns:xlink="http://www.w3.org/1999/xlink" x="0px" y="0px"
	 viewBox="0 0 413.395 413.395" style="enable-background:new 0 0 413.395 413.395;" xml:space="preserve" style="fill: white; width: 70px;">
<path d="M393.761,36.807c-11.009,0-19.632,6.502-19.632,14.804v42.811H39.267V51.611c0-8.301-8.624-14.804-19.634-14.804
	C8.624,36.807,0,43.309,0,51.611v320.477c0,2.485,2.015,4.5,4.5,4.5c0.275,0,30.087-0.001,30.221,0
	c1.181,0.003,2.358-0.458,3.212-1.304c0.854-0.845,1.334-1.997,1.334-3.198v-10.704c0.313-1.23,5.204-5.525,23.125-9.259
	c15.77-3.285,36.513-5.094,58.406-5.094c17.527,0,28.825,2.194,40.788,4.518c12.382,2.405,25.184,4.892,45.244,4.892
	c20.058,0,32.859-2.486,45.241-4.891c11.962-2.324,23.262-4.518,40.79-4.518c21.893,0,42.635,1.809,58.405,5.094
	c16.055,3.345,21.648,7.14,22.862,8.744v11.22c0,2.485,2.015,4.5,4.5,4.5c0.275,0,30.086-0.001,30.22,0
	c1.214,0.003,2.357-0.458,3.212-1.304c0.853-0.845,1.334-1.997,1.334-3.198V51.611C413.395,43.309,404.771,36.807,393.761,36.807z
	 M30.267,367.544c-4.74-0.04-20.261-0.006-21.267,0V73.654c0-2.74,4.547-5.804,10.633-5.804c6.086,0,10.634,3.064,10.634,5.804
	V367.544z M30.267,61.157c-3.048-1.458-6.683-2.306-10.634-2.306c-3.951,0-7.585,0.849-10.633,2.306v-9.546
	c0-2.74,4.547-5.804,10.633-5.804c6.086,0,10.634,3.064,10.634,5.804V61.157z M39.267,126.405h13.927v90.765
	c-5.303,0.831-10.107,3.183-13.927,6.624V126.405z M39.267,243.939c0-8.547,5.954-15.71,13.927-17.609v34.049H39.267V243.939z
	 M39.267,269.379h13.927v26.985H39.267V269.379z M374.129,350.03c-17.502-9.217-55.969-12.001-81.268-12.001
	c-18.395,0-30.652,2.381-42.506,4.683c-11.964,2.323-24.334,4.726-43.525,4.726c-19.193,0-31.564-2.403-43.528-4.727
	c-11.854-2.302-24.111-4.683-42.504-4.683c-25.432,0-64.157,2.816-81.531,12.149v-21.966h334.862V350.03z M374.129,319.212H39.267
	v-13.848h334.862V319.212z M62.193,296.363V126.405h13.924v169.958H62.193z M99.04,260.379H85.117v-34.562H99.04V260.379z
	 M85.117,269.379H99.04v26.985H85.117V269.379z M99.04,216.817H85.117v-90.412H99.04V216.817z M108.04,296.363V126.405h13.924
	v169.958H108.04z M130.964,225.817h13.925v34.562h-13.925V225.817z M130.964,269.379h13.925v26.985h-13.925V269.379z
	 M144.889,216.817h-13.925v-90.412h13.925V216.817z M153.889,296.363V126.405h13.924v169.958H153.889z M176.813,269.379h13.924
	v26.985h-13.924V269.379z M190.736,216.817h-13.924v-90.412h13.924V216.817z M176.813,225.817h13.924v34.562h-13.924V225.817z
	 M199.736,296.363V126.405h13.923v169.958H199.736z M236.582,260.379h-13.923v-34.562h13.923V260.379z M222.659,269.379h13.923
	v26.985h-13.923V269.379z M236.582,216.817h-13.923v-90.412h13.923V216.817z M245.582,296.363V126.405h13.924v169.958H245.582z
	 M268.506,225.817h13.926v34.562h-13.926V225.817z M268.506,269.379h13.926v26.985h-13.926V269.379z M282.432,216.817h-13.926
	v-90.412h13.926V216.817z M291.432,296.363V126.405h13.923v169.958H291.432z M314.354,269.379h13.923v26.985h-13.923V269.379z
	 M328.277,260.379h-13.923v-34.562h13.923V260.379z M328.277,216.817h-13.923v-90.412h13.923V216.817z M337.277,296.363V126.405
	h13.924v169.958H337.277z M374.129,296.363h-13.928v-26.985h13.928V296.363z M360.201,260.379v-34.052
	c7.973,1.901,13.926,9.066,13.926,17.612v16.44H360.201z M374.129,223.783c-3.82-3.44-8.622-5.809-13.928-6.635v-90.743h13.928
	V223.783z M374.129,117.405H39.267v-13.983h334.862V117.405z M404.395,367.544c-4.74-0.04-20.26-0.006-21.266,0V73.654
	c0-2.74,4.547-5.804,10.632-5.804c6.086,0,10.634,3.064,10.634,5.804V367.544z M404.395,61.157
	c-3.049-1.458-6.683-2.306-10.634-2.306c-3.95,0-7.584,0.848-10.632,2.306v-9.546c0-2.74,4.547-5.804,10.632-5.804
	c6.086,0,10.634,3.064,10.634,5.804V61.157z"/>
<g>
</g>
<g>
</g>
<g>
</g>
<g>
</g>
<g>
</g>
<g>
</g>
<g>
</g>
<g>
</g>
<g>
</g>
<g>
</g>
<g>
</g>
<g>
</g>
<g>
</g>
<g>
</g>
<g>
</g>
</svg>
